<svg width="367" height="174" viewBox="0 0 367 174" fill="none" xmlns="http://www.w3.org/2000/svg">
<path d="M25.875 125.625C23.1667 125.625 20.9167 125.312 19.125 124.688C17.3333 124.104 15.9167 123.438 14.875 122.688C13.8333 121.938 13.1042 121.229 12.6875 120.562C12.2708 119.854 12.0625 119.396 12.0625 119.188C12.0625 118.438 12.2292 117.646 12.5625 116.812C12.8958 115.938 13.3125 115.146 13.8125 114.438C14.3125 113.688 14.8542 113.062 15.4375 112.562C16.0208 112.062 16.5417 111.812 17 111.812C17.5833 111.812 18.0625 112.188 18.4375 112.938C18.5208 113.021 18.7292 113.229 19.0625 113.562C19.3958 113.896 19.8542 114.25 20.4375 114.625C21.0625 114.958 21.8125 115.271 22.6875 115.562C23.6042 115.854 24.6667 116 25.875 116C28.5 116 30.6458 115.208 32.3125 113.625C33.9792 112 34.8125 109.812 34.8125 107.062C34.8125 105.146 34.3542 103.438 33.4375 101.938C32.5625 100.438 31.3958 99.0417 29.9375 97.75C28.4792 96.4583 26.8125 95.2083 24.9375 94C23.0625 92.75 21.1458 91.4583 19.1875 90.125C17.2292 88.7917 15.3125 87.3542 13.4375 85.8125C11.5625 84.2708 9.89583 82.5 8.4375 80.5C6.97917 78.5 5.79167 76.25 4.875 73.75C4 71.2083 3.5625 68.3125 3.5625 65.0625C3.5625 62.2708 4.04167 59.4583 5 56.625C5.95833 53.7917 7.27083 51.1042 8.9375 48.5625C10.6458 45.9792 12.6458 43.5833 14.9375 41.375C17.2292 39.125 19.7083 37.1875 22.375 35.5625C25.0417 33.8958 27.8125 32.6042 30.6875 31.6875C33.6042 30.7292 36.5208 30.25 39.4375 30.25C41.9375 30.25 44.1875 30.6458 46.1875 31.4375C48.1875 32.2292 49.875 33.3542 51.25 34.8125C52.625 36.2292 53.6875 37.9583 54.4375 40C55.1875 42 55.5625 44.25 55.5625 46.75C55.5625 49.125 55.1458 51.4583 54.3125 53.75C53.4792 56.0417 52.375 58.2083 51 60.25C49.625 62.2917 48.0625 64.1875 46.3125 65.9375C44.6042 67.6458 42.8333 69.1458 41 70.4375C39.2083 71.6875 37.4583 72.6667 35.75 73.375C34.0417 74.0833 32.5417 74.4375 31.25 74.4375C30.125 74.4375 29.1042 74.1875 28.1875 73.6875C27.3125 73.1458 26.5625 72.5 25.9375 71.75C25.3542 70.9583 24.8958 70.1458 24.5625 69.3125C24.2292 68.4375 24.0625 67.6667 24.0625 67C24.0625 66.4583 24.125 66.1042 24.25 65.9375C24.4167 65.7708 24.625 65.7083 24.875 65.75C25.1667 65.75 25.5208 65.8125 25.9375 65.9375C26.3542 66.0208 26.8333 66.0625 27.375 66.0625C29.125 66.0625 31.0625 65.4583 33.1875 64.25C35.3125 63.0417 37.3125 61.5 39.1875 59.625C41.0625 57.75 42.625 55.6875 43.875 53.4375C45.1667 51.1875 45.8125 49 45.8125 46.875C45.8125 44.7083 45.2708 43 44.1875 41.75C43.1458 40.5 41.3542 39.875 38.8125 39.875C37.2292 39.875 35.5 40.1875 33.625 40.8125C31.7917 41.3958 29.9375 42.2292 28.0625 43.3125C26.1875 44.3958 24.375 45.7083 22.625 47.25C20.875 48.7917 19.3333 50.5 18 52.375C16.6667 54.2083 15.5833 56.2083 14.75 58.375C13.9583 60.5 13.5625 62.7292 13.5625 65.0625C13.5625 67.5208 14 69.7292 14.875 71.6875C15.7917 73.6042 16.9792 75.3542 18.4375 76.9375C19.9375 78.5208 21.625 79.9792 23.5 81.3125C25.375 82.6458 27.2917 83.9792 29.25 85.3125C31.2083 86.6042 33.125 87.9583 35 89.375C36.875 90.75 38.5417 92.2917 40 94C41.5 95.6667 42.6875 97.5417 43.5625 99.625C44.4792 101.667 44.9375 104.021 44.9375 106.688C44.9375 109.271 44.4375 111.729 43.4375 114.062C42.4792 116.354 41.1458 118.354 39.4375 120.062C37.7292 121.771 35.7083 123.125 33.375 124.125C31.0417 125.125 28.5417 125.625 25.875 125.625ZM58.75 42.125C58.75 41.2083 58.6667 40.4792 58.5 39.9375C58.375 39.3958 58.2292 38.9792 58.0625 38.6875C57.9375 38.3542 57.7917 38.1042 57.625 37.9375C57.5 37.7292 57.4375 37.5208 57.4375 37.3125C57.4375 37.0625 57.5625 36.8542 57.8125 36.6875C58.0625 36.5208 58.3958 36.375 58.8125 36.25C59.2292 36.125 59.6667 36.0417 60.125 36C60.625 35.9167 61.1042 35.875 61.5625 35.875C63.6875 35.875 65.3542 36.4375 66.5625 37.5625C67.8125 38.6458 68.4375 39.9583 68.4375 41.5V83.5C69.3125 81.7083 70.25 80.0417 71.25 78.5C72.2917 76.9583 73.3958 75.625 74.5625 74.5C75.7708 73.3333 77.0417 72.4375 78.375 71.8125C79.75 71.1458 81.2292 70.8125 82.8125 70.8125C84.9375 70.8125 86.6875 71.2083 88.0625 72C89.4375 72.7917 90.5208 73.8125 91.3125 75.0625C92.1042 76.3125 92.6458 77.7083 92.9375 79.25C93.2708 80.7917 93.4375 82.2917 93.4375 83.75V110.25C93.4375 110.542 93.4583 111.021 93.5 111.688C93.5417 112.312 93.6667 112.958 93.875 113.625C94.0833 114.292 94.3958 114.875 94.8125 115.375C95.2708 115.875 95.9167 116.125 96.75 116.125C98.0417 116.125 99.1458 115.667 100.062 114.75C101.021 113.833 101.833 112.688 102.5 111.312C103.208 109.938 103.771 108.458 104.188 106.875C104.646 105.25 105.021 103.729 105.312 102.312C105.562 101.021 105.938 100.083 106.438 99.5C106.979 98.9167 107.542 98.6042 108.125 98.5625C108.75 98.4792 109.375 98.625 110 99C110.625 99.375 111.167 99.875 111.625 100.5C112.083 101.083 112.417 101.75 112.625 102.5C112.875 103.25 112.917 103.958 112.75 104.625C112.167 106.75 111.396 108.979 110.438 111.312C109.521 113.646 108.333 115.792 106.875 117.75C105.417 119.708 103.667 121.333 101.625 122.625C99.5833 123.917 97.1875 124.562 94.4375 124.562C92.7292 124.562 91.2083 124.229 89.875 123.562C88.5833 122.938 87.4583 122.083 86.5 121C85.5833 119.917 84.875 118.646 84.375 117.188C83.9167 115.729 83.6875 114.188 83.6875 112.562V86.5625C83.6875 85.5625 83.6667 84.625 83.625 83.75C83.5833 82.875 83.4583 82.1042 83.25 81.4375C83.0833 80.7708 82.8125 80.25 82.4375 79.875C82.1042 79.4583 81.625 79.25 81 79.25C80.0833 79.25 78.9583 79.875 77.625 81.125C76.2917 82.375 74.9792 84 73.6875 86C72.3958 88 71.25 90.2708 70.25 92.8125C69.2917 95.3125 68.6875 97.8333 68.4375 100.375V119.062C68.4375 119.688 68.4167 120.333 68.375 121C68.375 121.625 68.25 122.188 68 122.688C67.7917 123.229 67.4375 123.667 66.9375 124C66.4792 124.375 65.7917 124.562 64.875 124.562C64.25 124.562 63.5625 124.479 62.8125 124.312C62.1042 124.188 61.4375 123.917 60.8125 123.5C60.2292 123.125 59.7292 122.562 59.3125 121.812C58.9375 121.104 58.75 120.146 58.75 118.938V42.125ZM142.062 116.125C143.354 116.125 144.458 115.667 145.375 114.75C146.333 113.833 147.146 112.688 147.812 111.312C148.521 109.938 149.083 108.458 149.5 106.875C149.958 105.25 150.333 103.729 150.625 102.312C150.917 100.979 151.333 100.021 151.875 99.4375C152.458 98.8125 153.083 98.5 153.75 98.5C154.25 98.5 154.75 98.6667 155.25 99C155.792 99.2917 156.271 99.6875 156.688 100.188C157.146 100.688 157.5 101.25 157.75 101.875C158.042 102.5 158.188 103.125 158.188 103.75C158.188 103.833 158.188 103.938 158.188 104.062C158.188 104.188 158.146 104.375 158.062 104.625C157.521 106.75 156.771 108.979 155.812 111.312C154.896 113.646 153.708 115.792 152.25 117.75C150.792 119.708 149.021 121.333 146.938 122.625C144.896 123.917 142.5 124.562 139.75 124.562C137.5 124.562 135.542 124.083 133.875 123.125C132.208 122.167 130.896 120.896 129.938 119.312C128.646 120.771 127.083 122 125.25 123C123.458 124.042 121.354 124.562 118.938 124.562C116.438 124.562 114.229 124.062 112.312 123.062C110.438 122.062 108.854 120.708 107.562 119C106.271 117.25 105.292 115.208 104.625 112.875C104 110.5 103.688 107.958 103.688 105.25C103.688 99.9167 104.542 95.125 106.25 90.875C107.958 86.625 110.229 83.0208 113.062 80.0625C115.896 77.0625 119.125 74.7708 122.75 73.1875C126.417 71.6042 130.208 70.8125 134.125 70.8125C135.875 70.8125 137.292 71.2917 138.375 72.25C139.458 73.2083 140 74.5208 140 76.1875C140 77.2708 139.875 78.0417 139.625 78.5C139.417 78.9167 139 79.125 138.375 79.125C137.792 79.125 137.188 79.0833 136.562 79C135.938 78.9167 135.292 78.875 134.625 78.875C132.208 78.875 129.75 79.4167 127.25 80.5C124.75 81.5417 122.479 83.1667 120.438 85.375C118.438 87.5417 116.792 90.3125 115.5 93.6875C114.208 97.0208 113.562 101 113.562 105.625C113.562 109 114.208 111.604 115.5 113.438C116.792 115.229 118.562 116.125 120.812 116.125C122.562 116.125 124.021 115.479 125.188 114.188C126.354 112.854 127.292 111.292 128 109.5V89.75C128 89.125 127.958 88.6042 127.875 88.1875C127.833 87.7708 127.771 87.4167 127.688 87.125C127.646 86.8333 127.604 86.5833 127.562 86.375C127.521 86.125 127.5 85.8958 127.5 85.6875C127.5 85.0208 127.812 84.5 128.438 84.125C129.104 83.7083 129.896 83.5 130.812 83.5C132.938 83.5 134.625 84.0625 135.875 85.1875C137.125 86.2708 137.75 87.5833 137.75 89.125V110.25C137.75 110.958 137.833 111.667 138 112.375C138.167 113.042 138.417 113.667 138.75 114.25C139.083 114.792 139.521 115.25 140.062 115.625C140.646 115.958 141.312 116.125 142.062 116.125ZM179.125 124.562C177.625 124.562 176.083 124.333 174.5 123.875C172.958 123.417 171.542 122.625 170.25 121.5C169 120.375 167.958 118.896 167.125 117.062C166.333 115.188 165.938 112.833 165.938 110C165.938 105.875 166.479 101.521 167.562 96.9375C168.688 92.3125 170.292 87.2292 172.375 81.6875H162.625H161.188C161.146 82.9375 161.062 84.5208 160.938 86.4375C160.854 88.3542 160.688 90.3958 160.438 92.5625C160.188 94.7292 159.854 96.9167 159.438 99.125C159.062 101.333 158.583 103.375 158 105.25C157.583 106.583 156.917 107.354 156 107.562C155.125 107.771 154.25 107.625 153.375 107.125C152.5 106.583 151.792 105.812 151.25 104.812C150.708 103.812 150.583 102.771 150.875 101.688C151.208 100.396 151.5 98.8333 151.75 97C152 95.125 152.188 93.1667 152.312 91.125C152.479 89.0417 152.604 86.9792 152.688 84.9375C152.771 82.8542 152.833 81 152.875 79.375C151.292 78.5 149.979 77.3958 148.938 76.0625C147.896 74.6875 147.375 73.0625 147.375 71.1875C147.375 70.3125 147.542 69.5208 147.875 68.8125C148.25 68.0625 148.729 67.4375 149.312 66.9375C149.896 66.3958 150.583 66 151.375 65.75C152.167 65.4583 152.979 65.3125 153.812 65.3125C154.562 65.3125 155.333 65.4167 156.125 65.625C156.958 65.8333 157.729 66.2083 158.438 66.75C159.188 67.2917 159.854 68 160.438 68.875C161.021 69.75 161.5 70.8333 161.875 72.125C162.917 72.25 163.792 72.3542 164.5 72.4375C165.25 72.4792 165.875 72.5208 166.375 72.5625C166.875 72.6042 167.292 72.625 167.625 72.625C167.958 72.625 168.292 72.625 168.625 72.625H175.312C175.688 72.625 176.229 72.8542 176.938 73.3125C177.688 73.7708 178.417 74.375 179.125 75.125C179.833 75.8333 180.417 76.6042 180.875 77.4375C181.375 78.2708 181.562 79.0625 181.438 79.8125C181.438 80.0625 181.292 80.6667 181 81.625C180.708 82.5833 180.354 83.7917 179.938 85.25C179.521 86.7083 179.062 88.3958 178.562 90.3125C178.062 92.1875 177.604 94.1667 177.188 96.25C176.771 98.3333 176.417 100.5 176.125 102.75C175.833 104.958 175.688 107.125 175.688 109.25C175.688 110.125 175.792 110.979 176 111.812C176.208 112.646 176.521 113.396 176.938 114.062C177.354 114.688 177.875 115.188 178.5 115.562C179.167 115.938 179.938 116.125 180.812 116.125C182.271 116.125 183.521 115.667 184.562 114.75C185.604 113.833 186.479 112.688 187.188 111.312C187.896 109.938 188.458 108.458 188.875 106.875C189.333 105.25 189.708 103.729 190 102.312C190.25 100.979 190.667 100.021 191.25 99.4375C191.833 98.8125 192.438 98.5 193.062 98.5C193.562 98.5 194.083 98.6667 194.625 99C195.167 99.2917 195.646 99.6875 196.062 100.188C196.521 100.688 196.875 101.25 197.125 101.875C197.417 102.5 197.562 103.125 197.562 103.75C197.562 103.958 197.542 104.125 197.5 104.25C197.458 104.375 197.438 104.5 197.438 104.625C196.854 106.75 196.083 108.979 195.125 111.312C194.208 113.646 193.021 115.792 191.562 117.75C190.104 119.708 188.354 121.333 186.312 122.625C184.271 123.917 181.875 124.562 179.125 124.562ZM220.062 83.75C220.062 86.125 219.646 88.5625 218.812 91.0625C218.021 93.5625 216.812 95.9375 215.188 98.1875C213.604 100.396 211.625 102.396 209.25 104.188C206.917 105.938 204.208 107.271 201.125 108.188C201.542 109.271 202.083 110.312 202.75 111.312C203.458 112.271 204.292 113.104 205.25 113.812C206.208 114.521 207.312 115.083 208.562 115.5C209.854 115.917 211.333 116.125 213 116.125C215.5 116.125 217.646 115.667 219.438 114.75C221.229 113.792 222.729 112.542 223.938 111C225.188 109.458 226.188 107.729 226.938 105.812C227.688 103.896 228.25 101.958 228.625 100C228.917 98.5833 229.5 97.6458 230.375 97.1875C231.292 96.6875 232.208 96.5625 233.125 96.8125C234.083 97.0625 234.896 97.6042 235.562 98.4375C236.271 99.2292 236.562 100.188 236.438 101.312C236.271 102.604 235.979 104.083 235.562 105.75C235.188 107.417 234.604 109.104 233.812 110.812C233.021 112.521 232 114.208 230.75 115.875C229.542 117.5 228.042 118.958 226.25 120.25C224.458 121.542 222.354 122.583 219.938 123.375C217.521 124.167 214.75 124.562 211.625 124.562C208.708 124.562 205.875 123.979 203.125 122.812C200.417 121.688 198 120.062 195.875 117.938C193.792 115.771 192.104 113.125 190.812 110C189.562 106.833 188.938 103.25 188.938 99.25C188.938 95.2083 189.5 91.4583 190.625 88C191.75 84.5 193.229 81.4792 195.062 78.9375C196.896 76.3958 198.979 74.4167 201.312 73C203.646 71.5417 206.042 70.8125 208.5 70.8125C210.292 70.8125 211.896 71.125 213.312 71.75C214.771 72.375 216 73.2708 217 74.4375C218 75.5625 218.75 76.9167 219.25 78.5C219.792 80.0833 220.062 81.8333 220.062 83.75ZM199.438 98.875C199.438 99.25 199.458 99.625 199.5 100C199.542 100.375 199.562 100.771 199.562 101.188C201.146 100.438 202.583 99.4792 203.875 98.3125C205.167 97.1458 206.271 95.8125 207.188 94.3125C208.104 92.8125 208.812 91.1875 209.312 89.4375C209.812 87.6458 210.062 85.7917 210.062 83.875C210.062 82.4583 209.812 81.3542 209.312 80.5625C208.854 79.7708 208.208 79.375 207.375 79.375C206.333 79.375 205.396 79.7292 204.562 80.4375C203.771 81.1458 203.062 82.0833 202.438 83.25C201.854 84.375 201.354 85.6667 200.938 87.125C200.562 88.5417 200.25 89.9792 200 91.4375C199.75 92.8958 199.583 94.2917 199.5 95.625C199.417 96.9167 199.396 98 199.438 98.875Z" fill="black"/>
<path d="M312.5 78.375C312.5 77.1667 312.396 76.2917 312.188 75.75C312.021 75.2083 311.938 74.7083 311.938 74.25C311.938 73.625 312.271 73.125 312.938 72.75C313.604 72.3333 314.396 72.125 315.312 72.125C317.438 72.125 319.104 72.6875 320.312 73.8125C321.562 74.8958 322.188 76.2083 322.188 77.75V83.5C323.062 81.7083 324 80.0417 325 78.5C326.042 76.9583 327.146 75.625 328.312 74.5C329.521 73.3333 330.792 72.4375 332.125 71.8125C333.5 71.1458 334.979 70.8125 336.562 70.8125C338.688 70.8125 340.438 71.2083 341.812 72C343.188 72.7917 344.271 73.8125 345.062 75.0625C345.854 76.3125 346.396 77.7083 346.688 79.25C347.021 80.7917 347.188 82.2917 347.188 83.75V110.25C347.188 110.542 347.208 111.021 347.25 111.688C347.292 112.312 347.417 112.958 347.625 113.625C347.833 114.292 348.146 114.875 348.562 115.375C349.021 115.875 349.667 116.125 350.5 116.125C351.792 116.125 352.896 115.667 353.812 114.75C354.771 113.833 355.583 112.688 356.25 111.312C356.958 109.938 357.521 108.458 357.938 106.875C358.396 105.25 358.771 103.729 359.062 102.312C359.312 100.979 359.729 100.021 360.312 99.4375C360.896 98.8125 361.5 98.5 362.125 98.5C362.625 98.5 363.146 98.6667 363.688 99C364.229 99.2917 364.708 99.6875 365.125 100.188C365.583 100.688 365.938 101.25 366.188 101.875C366.479 102.5 366.625 103.125 366.625 103.75C366.625 103.833 366.625 103.938 366.625 104.062C366.625 104.188 366.583 104.375 366.5 104.625C365.958 106.75 365.208 108.979 364.25 111.312C363.333 113.646 362.125 115.792 360.625 117.75C359.167 119.708 357.417 121.333 355.375 122.625C353.333 123.917 350.938 124.562 348.188 124.562C346.479 124.562 344.958 124.229 343.625 123.562C342.333 122.938 341.208 122.083 340.25 121C339.333 119.917 338.625 118.646 338.125 117.188C337.667 115.729 337.438 114.188 337.438 112.562V86.5625C337.438 85.5625 337.417 84.625 337.375 83.75C337.333 82.875 337.208 82.1042 337 81.4375C336.833 80.7708 336.562 80.25 336.188 79.875C335.854 79.4583 335.375 79.25 334.75 79.25C333.833 79.25 332.708 79.875 331.375 81.125C330.042 82.375 328.729 84 327.438 86C326.146 88 325 90.2708 324 92.8125C323.042 95.3125 322.438 97.8333 322.188 100.375V119.062C322.188 119.688 322.167 120.333 322.125 121C322.125 121.625 322 122.188 321.75 122.688C321.542 123.229 321.188 123.667 320.688 124C320.229 124.375 319.542 124.562 318.625 124.562C318 124.562 317.312 124.479 316.562 124.312C315.854 124.188 315.188 123.917 314.562 123.5C313.979 123.125 313.479 122.562 313.062 121.812C312.688 121.104 312.5 120.146 312.5 118.938V78.375Z" fill="black"/>
<path d="M264.5 72.5V127.5" stroke="black" stroke-width="11" stroke-linecap="round"/>
<path fill-rule="evenodd" clip-rule="evenodd" d="M277.375 115.714C277.375 113.908 278.4 112.277 279.925 111.309C290.81 104.399 299 90.3487 299 72.5C299 46.8175 282.044 29 264.5 29C246.956 29 230 46.8175 230 72.5C230 90.3487 238.19 104.399 249.075 111.309C250.6 112.277 251.625 113.908 251.625 115.714C251.625 119.078 248.262 121.376 245.368 119.663C230.936 111.119 221 93.2096 221 72.5C221 43.5051 240.476 20 264.5 20C288.524 20 308 43.5051 308 72.5C308 93.2096 298.064 111.119 283.632 119.663C280.738 121.376 277.375 119.078 277.375 115.714Z" fill="black"/>
</svg>
