<svg width="364" height="113" viewBox="0 0 364 113" fill="none" xmlns="http://www.w3.org/2000/svg">
<path d="M22.875 105.625C20.1667 105.625 17.9167 105.312 16.125 104.688C14.3333 104.104 12.9167 103.438 11.875 102.688C10.8333 101.938 10.1042 101.229 9.6875 100.562C9.27083 99.8542 9.0625 99.3958 9.0625 99.1875C9.0625 98.4375 9.22917 97.6458 9.5625 96.8125C9.89583 95.9375 10.3125 95.1458 10.8125 94.4375C11.3125 93.6875 11.8542 93.0625 12.4375 92.5625C13.0208 92.0625 13.5417 91.8125 14 91.8125C14.5833 91.8125 15.0625 92.1875 15.4375 92.9375C15.5208 93.0208 15.7292 93.2292 16.0625 93.5625C16.3958 93.8958 16.8542 94.25 17.4375 94.625C18.0625 94.9583 18.8125 95.2708 19.6875 95.5625C20.6042 95.8542 21.6667 96 22.875 96C25.5 96 27.6458 95.2083 29.3125 93.625C30.9792 92 31.8125 89.8125 31.8125 87.0625C31.8125 85.1458 31.3542 83.4375 30.4375 81.9375C29.5625 80.4375 28.3958 79.0417 26.9375 77.75C25.4792 76.4583 23.8125 75.2083 21.9375 74C20.0625 72.75 18.1458 71.4583 16.1875 70.125C14.2292 68.7917 12.3125 67.3542 10.4375 65.8125C8.5625 64.2708 6.89583 62.5 5.4375 60.5C3.97917 58.5 2.79167 56.25 1.875 53.75C1 51.2083 0.5625 48.3125 0.5625 45.0625C0.5625 42.2708 1.04167 39.4583 2 36.625C2.95833 33.7917 4.27083 31.1042 5.9375 28.5625C7.64583 25.9792 9.64583 23.5833 11.9375 21.375C14.2292 19.125 16.7083 17.1875 19.375 15.5625C22.0417 13.8958 24.8125 12.6042 27.6875 11.6875C30.6042 10.7292 33.5208 10.25 36.4375 10.25C38.9375 10.25 41.1875 10.6458 43.1875 11.4375C45.1875 12.2292 46.875 13.3542 48.25 14.8125C49.625 16.2292 50.6875 17.9583 51.4375 20C52.1875 22 52.5625 24.25 52.5625 26.75C52.5625 29.125 52.1458 31.4583 51.3125 33.75C50.4792 36.0417 49.375 38.2083 48 40.25C46.625 42.2917 45.0625 44.1875 43.3125 45.9375C41.6042 47.6458 39.8333 49.1458 38 50.4375C36.2083 51.6875 34.4583 52.6667 32.75 53.375C31.0417 54.0833 29.5417 54.4375 28.25 54.4375C27.125 54.4375 26.1042 54.1875 25.1875 53.6875C24.3125 53.1458 23.5625 52.5 22.9375 51.75C22.3542 50.9583 21.8958 50.1458 21.5625 49.3125C21.2292 48.4375 21.0625 47.6667 21.0625 47C21.0625 46.4583 21.125 46.1042 21.25 45.9375C21.4167 45.7708 21.625 45.7083 21.875 45.75C22.1667 45.75 22.5208 45.8125 22.9375 45.9375C23.3542 46.0208 23.8333 46.0625 24.375 46.0625C26.125 46.0625 28.0625 45.4583 30.1875 44.25C32.3125 43.0417 34.3125 41.5 36.1875 39.625C38.0625 37.75 39.625 35.6875 40.875 33.4375C42.1667 31.1875 42.8125 29 42.8125 26.875C42.8125 24.7083 42.2708 23 41.1875 21.75C40.1458 20.5 38.3542 19.875 35.8125 19.875C34.2292 19.875 32.5 20.1875 30.625 20.8125C28.7917 21.3958 26.9375 22.2292 25.0625 23.3125C23.1875 24.3958 21.375 25.7083 19.625 27.25C17.875 28.7917 16.3333 30.5 15 32.375C13.6667 34.2083 12.5833 36.2083 11.75 38.375C10.9583 40.5 10.5625 42.7292 10.5625 45.0625C10.5625 47.5208 11 49.7292 11.875 51.6875C12.7917 53.6042 13.9792 55.3542 15.4375 56.9375C16.9375 58.5208 18.625 59.9792 20.5 61.3125C22.375 62.6458 24.2917 63.9792 26.25 65.3125C28.2083 66.6042 30.125 67.9583 32 69.375C33.875 70.75 35.5417 72.2917 37 74C38.5 75.6667 39.6875 77.5417 40.5625 79.625C41.4792 81.6667 41.9375 84.0208 41.9375 86.6875C41.9375 89.2708 41.4375 91.7292 40.4375 94.0625C39.4792 96.3542 38.1458 98.3542 36.4375 100.062C34.7292 101.771 32.7083 103.125 30.375 104.125C28.0417 105.125 25.5417 105.625 22.875 105.625Z" fill="black"/>
<path d="M55.75 22.125C55.75 21.2083 55.6667 20.4792 55.5 19.9375C55.375 19.3958 55.2292 18.9792 55.0625 18.6875C54.9375 18.3542 54.7917 18.1042 54.625 17.9375C54.5 17.7292 54.4375 17.5208 54.4375 17.3125C54.4375 17.0625 54.5625 16.8542 54.8125 16.6875C55.0625 16.5208 55.3958 16.375 55.8125 16.25C56.2292 16.125 56.6667 16.0417 57.125 16C57.625 15.9167 58.1042 15.875 58.5625 15.875C60.6875 15.875 62.3542 16.4375 63.5625 17.5625C64.8125 18.6458 65.4375 19.9583 65.4375 21.5V63.5C66.3125 61.7083 67.25 60.0417 68.25 58.5C69.2917 56.9583 70.3958 55.625 71.5625 54.5C72.7708 53.3333 74.0417 52.4375 75.375 51.8125C76.75 51.1458 78.2292 50.8125 79.8125 50.8125C81.9375 50.8125 83.6875 51.2083 85.0625 52C86.4375 52.7917 87.5208 53.8125 88.3125 55.0625C89.1042 56.3125 89.6458 57.7083 89.9375 59.25C90.2708 60.7917 90.4375 62.2917 90.4375 63.75V90.25C90.4375 90.5417 90.4583 91.0208 90.5 91.6875C90.5417 92.3125 90.6667 92.9583 90.875 93.625C91.0833 94.2917 91.3958 94.875 91.8125 95.375C92.2708 95.875 92.9167 96.125 93.75 96.125C95.0417 96.125 96.1458 95.6667 97.0625 94.75C98.0208 93.8333 98.8333 92.6875 99.5 91.3125C100.208 89.9375 100.771 88.4583 101.188 86.875C101.646 85.25 102.021 83.7292 102.312 82.3125C102.562 81.0208 102.938 80.0833 103.438 79.5C103.979 78.9167 104.542 78.6042 105.125 78.5625C105.75 78.4792 106.375 78.625 107 79C107.625 79.375 108.167 79.875 108.625 80.5C109.083 81.0833 109.417 81.75 109.625 82.5C109.875 83.25 109.917 83.9583 109.75 84.625C109.167 86.75 108.396 88.9792 107.438 91.3125C106.521 93.6458 105.333 95.7917 103.875 97.75C102.417 99.7083 100.667 101.333 98.625 102.625C96.5833 103.917 94.1875 104.562 91.4375 104.562C89.7292 104.562 88.2083 104.229 86.875 103.562C85.5833 102.938 84.4583 102.083 83.5 101C82.5833 99.9167 81.875 98.6458 81.375 97.1875C80.9167 95.7292 80.6875 94.1875 80.6875 92.5625V66.5625C80.6875 65.5625 80.6667 64.625 80.625 63.75C80.5833 62.875 80.4583 62.1042 80.25 61.4375C80.0833 60.7708 79.8125 60.25 79.4375 59.875C79.1042 59.4583 78.625 59.25 78 59.25C77.0833 59.25 75.9583 59.875 74.625 61.125C73.2917 62.375 71.9792 64 70.6875 66C69.3958 68 68.25 70.2708 67.25 72.8125C66.2917 75.3125 65.6875 77.8333 65.4375 80.375V99.0625C65.4375 99.6875 65.4167 100.333 65.375 101C65.375 101.625 65.25 102.188 65 102.688C64.7917 103.229 64.4375 103.667 63.9375 104C63.4792 104.375 62.7917 104.562 61.875 104.562C61.25 104.562 60.5625 104.479 59.8125 104.312C59.1042 104.188 58.4375 103.917 57.8125 103.5C57.2292 103.125 56.7292 102.562 56.3125 101.812C55.9375 101.104 55.75 100.146 55.75 98.9375V22.125Z" fill="black"/>
<path d="M139.062 96.125C140.354 96.125 141.458 95.6667 142.375 94.75C143.333 93.8333 144.146 92.6875 144.812 91.3125C145.521 89.9375 146.083 88.4583 146.5 86.875C146.958 85.25 147.333 83.7292 147.625 82.3125C147.917 80.9792 148.333 80.0208 148.875 79.4375C149.458 78.8125 150.083 78.5 150.75 78.5C151.25 78.5 151.75 78.6667 152.25 79C152.792 79.2917 153.271 79.6875 153.688 80.1875C154.146 80.6875 154.5 81.25 154.75 81.875C155.042 82.5 155.188 83.125 155.188 83.75C155.188 83.8333 155.188 83.9375 155.188 84.0625C155.188 84.1875 155.146 84.375 155.062 84.625C154.521 86.75 153.771 88.9792 152.812 91.3125C151.896 93.6458 150.708 95.7917 149.25 97.75C147.792 99.7083 146.021 101.333 143.938 102.625C141.896 103.917 139.5 104.562 136.75 104.562C134.5 104.562 132.542 104.083 130.875 103.125C129.208 102.167 127.896 100.896 126.938 99.3125C125.646 100.771 124.083 102 122.25 103C120.458 104.042 118.354 104.562 115.938 104.562C113.438 104.562 111.229 104.062 109.312 103.062C107.438 102.062 105.854 100.708 104.562 99C103.271 97.25 102.292 95.2083 101.625 92.875C101 90.5 100.688 87.9583 100.688 85.25C100.688 79.9167 101.542 75.125 103.25 70.875C104.958 66.625 107.229 63.0208 110.062 60.0625C112.896 57.0625 116.125 54.7708 119.75 53.1875C123.417 51.6042 127.208 50.8125 131.125 50.8125C132.875 50.8125 134.292 51.2917 135.375 52.25C136.458 53.2083 137 54.5208 137 56.1875C137 57.2708 136.875 58.0417 136.625 58.5C136.417 58.9167 136 59.125 135.375 59.125C134.792 59.125 134.188 59.0833 133.562 59C132.938 58.9167 132.292 58.875 131.625 58.875C129.208 58.875 126.75 59.4167 124.25 60.5C121.75 61.5417 119.479 63.1667 117.438 65.375C115.438 67.5417 113.792 70.3125 112.5 73.6875C111.208 77.0208 110.562 81 110.562 85.625C110.562 89 111.208 91.6042 112.5 93.4375C113.792 95.2292 115.562 96.125 117.812 96.125C119.562 96.125 121.021 95.4792 122.188 94.1875C123.354 92.8542 124.292 91.2917 125 89.5V69.75C125 69.125 124.958 68.6042 124.875 68.1875C124.833 67.7708 124.771 67.4167 124.688 67.125C124.646 66.8333 124.604 66.5833 124.562 66.375C124.521 66.125 124.5 65.8958 124.5 65.6875C124.5 65.0208 124.812 64.5 125.438 64.125C126.104 63.7083 126.896 63.5 127.812 63.5C129.938 63.5 131.625 64.0625 132.875 65.1875C134.125 66.2708 134.75 67.5833 134.75 69.125V90.25C134.75 90.9583 134.833 91.6667 135 92.375C135.167 93.0417 135.417 93.6667 135.75 94.25C136.083 94.7917 136.521 95.25 137.062 95.625C137.646 95.9583 138.312 96.125 139.062 96.125Z" fill="black"/>
<path d="M176.125 104.562C174.625 104.562 173.083 104.333 171.5 103.875C169.958 103.417 168.542 102.625 167.25 101.5C166 100.375 164.958 98.8958 164.125 97.0625C163.333 95.1875 162.938 92.8333 162.938 90C162.938 85.875 163.479 81.5208 164.562 76.9375C165.688 72.3125 167.292 67.2292 169.375 61.6875H158.188C158.146 62.9375 158.062 64.5208 157.938 66.4375C157.854 68.3542 157.688 70.3958 157.438 72.5625C157.188 74.7292 156.854 76.9167 156.438 79.125C156.062 81.3333 155.583 83.375 155 85.25C154.583 86.5833 153.917 87.3542 153 87.5625C152.125 87.7708 151.25 87.625 150.375 87.125C149.5 86.5833 148.792 85.8125 148.25 84.8125C147.708 83.8125 147.583 82.7708 147.875 81.6875C148.208 80.3958 148.5 78.8333 148.75 77C149 75.125 149.188 73.1667 149.312 71.125C149.479 69.0417 149.604 66.9792 149.688 64.9375C149.771 62.8542 149.833 61 149.875 59.375C148.292 58.5 146.979 57.3958 145.938 56.0625C144.896 54.6875 144.375 53.0625 144.375 51.1875C144.375 50.3125 144.542 49.5208 144.875 48.8125C145.25 48.0625 145.729 47.4375 146.312 46.9375C146.896 46.3958 147.583 46 148.375 45.75C149.167 45.4583 149.979 45.3125 150.812 45.3125C151.562 45.3125 152.333 45.4167 153.125 45.625C153.958 45.8333 154.729 46.2083 155.438 46.75C156.188 47.2917 156.854 48 157.438 48.875C158.021 49.75 158.5 50.8333 158.875 52.125C159.917 52.25 160.792 52.3542 161.5 52.4375C162.25 52.4792 162.875 52.5208 163.375 52.5625C163.875 52.6042 164.292 52.625 164.625 52.625C164.958 52.625 165.292 52.625 165.625 52.625H172.312C172.688 52.625 173.229 52.8542 173.938 53.3125C174.688 53.7708 175.417 54.375 176.125 55.125C176.833 55.8333 177.417 56.6042 177.875 57.4375C178.375 58.2708 178.562 59.0625 178.438 59.8125C178.438 60.0625 178.292 60.6667 178 61.625C177.708 62.5833 177.354 63.7917 176.938 65.25C176.521 66.7083 176.062 68.3958 175.562 70.3125C175.062 72.1875 174.604 74.1667 174.188 76.25C173.771 78.3333 173.417 80.5 173.125 82.75C172.833 84.9583 172.688 87.125 172.688 89.25C172.688 90.125 172.792 90.9792 173 91.8125C173.208 92.6458 173.521 93.3958 173.938 94.0625C174.354 94.6875 174.875 95.1875 175.5 95.5625C176.167 95.9375 176.938 96.125 177.812 96.125C179.271 96.125 180.521 95.6667 181.562 94.75C182.604 93.8333 183.479 92.6875 184.188 91.3125C184.896 89.9375 185.458 88.4583 185.875 86.875C186.333 85.25 186.708 83.7292 187 82.3125C187.25 80.9792 187.667 80.0208 188.25 79.4375C188.833 78.8125 189.438 78.5 190.062 78.5C190.562 78.5 191.083 78.6667 191.625 79C192.167 79.2917 192.646 79.6875 193.062 80.1875C193.521 80.6875 193.875 81.25 194.125 81.875C194.417 82.5 194.562 83.125 194.562 83.75C194.562 83.9583 194.542 84.125 194.5 84.25C194.458 84.375 194.438 84.5 194.438 84.625C193.854 86.75 193.083 88.9792 192.125 91.3125C191.208 93.6458 190.021 95.7917 188.562 97.75C187.104 99.7083 185.354 101.333 183.312 102.625C181.271 103.917 178.875 104.562 176.125 104.562Z" fill="black"/>
<path d="M217.062 63.75C217.062 66.125 216.646 68.5625 215.812 71.0625C215.021 73.5625 213.812 75.9375 212.188 78.1875C210.604 80.3958 208.625 82.3958 206.25 84.1875C203.917 85.9375 201.208 87.2708 198.125 88.1875C198.542 89.2708 199.083 90.3125 199.75 91.3125C200.458 92.2708 201.292 93.1042 202.25 93.8125C203.208 94.5208 204.312 95.0833 205.562 95.5C206.854 95.9167 208.333 96.125 210 96.125C212.5 96.125 214.646 95.6667 216.438 94.75C218.229 93.7917 219.729 92.5417 220.938 91C222.188 89.4583 223.188 87.7292 223.938 85.8125C224.688 83.8958 225.25 81.9583 225.625 80C225.917 78.5833 226.5 77.6458 227.375 77.1875C228.292 76.6875 229.208 76.5625 230.125 76.8125C231.083 77.0625 231.896 77.6042 232.562 78.4375C233.271 79.2292 233.562 80.1875 233.438 81.3125C233.271 82.6042 232.979 84.0833 232.562 85.75C232.188 87.4167 231.604 89.1042 230.812 90.8125C230.021 92.5208 229 94.2083 227.75 95.875C226.542 97.5 225.042 98.9583 223.25 100.25C221.458 101.542 219.354 102.583 216.938 103.375C214.521 104.167 211.75 104.562 208.625 104.562C205.708 104.562 202.875 103.979 200.125 102.812C197.417 101.688 195 100.062 192.875 97.9375C190.792 95.7708 189.104 93.125 187.812 90C186.562 86.8333 185.938 83.25 185.938 79.25C185.938 75.2083 186.5 71.4583 187.625 68C188.75 64.5 190.229 61.4792 192.062 58.9375C193.896 56.3958 195.979 54.4167 198.312 53C200.646 51.5417 203.042 50.8125 205.5 50.8125C207.292 50.8125 208.896 51.125 210.312 51.75C211.771 52.375 213 53.2708 214 54.4375C215 55.5625 215.75 56.9167 216.25 58.5C216.792 60.0833 217.062 61.8333 217.062 63.75ZM196.438 78.875C196.438 79.25 196.458 79.625 196.5 80C196.542 80.375 196.562 80.7708 196.562 81.1875C198.146 80.4375 199.583 79.4792 200.875 78.3125C202.167 77.1458 203.271 75.8125 204.188 74.3125C205.104 72.8125 205.812 71.1875 206.312 69.4375C206.812 67.6458 207.062 65.7917 207.062 63.875C207.062 62.4583 206.812 61.3542 206.312 60.5625C205.854 59.7708 205.208 59.375 204.375 59.375C203.333 59.375 202.396 59.7292 201.562 60.4375C200.771 61.1458 200.062 62.0833 199.438 63.25C198.854 64.375 198.354 65.6667 197.938 67.125C197.562 68.5417 197.25 69.9792 197 71.4375C196.75 72.8958 196.583 74.2917 196.5 75.625C196.417 76.9167 196.396 78 196.438 78.875Z" fill="black"/>
<path d="M309.5 58.375C309.5 57.1667 309.396 56.2917 309.188 55.75C309.021 55.2083 308.938 54.7083 308.938 54.25C308.938 53.625 309.271 53.125 309.938 52.75C310.604 52.3333 311.396 52.125 312.312 52.125C314.438 52.125 316.104 52.6875 317.312 53.8125C318.562 54.8958 319.188 56.2083 319.188 57.75V63.5C320.062 61.7083 321 60.0417 322 58.5C323.042 56.9583 324.146 55.625 325.312 54.5C326.521 53.3333 327.792 52.4375 329.125 51.8125C330.5 51.1458 331.979 50.8125 333.562 50.8125C335.688 50.8125 337.438 51.2083 338.812 52C340.188 52.7917 341.271 53.8125 342.062 55.0625C342.854 56.3125 343.396 57.7083 343.688 59.25C344.021 60.7917 344.188 62.2917 344.188 63.75V90.25C344.188 90.5417 344.208 91.0208 344.25 91.6875C344.292 92.3125 344.417 92.9583 344.625 93.625C344.833 94.2917 345.146 94.875 345.562 95.375C346.021 95.875 346.667 96.125 347.5 96.125C348.792 96.125 349.896 95.6667 350.812 94.75C351.771 93.8333 352.583 92.6875 353.25 91.3125C353.958 89.9375 354.521 88.4583 354.938 86.875C355.396 85.25 355.771 83.7292 356.062 82.3125C356.312 80.9792 356.729 80.0208 357.312 79.4375C357.896 78.8125 358.5 78.5 359.125 78.5C359.625 78.5 360.146 78.6667 360.688 79C361.229 79.2917 361.708 79.6875 362.125 80.1875C362.583 80.6875 362.938 81.25 363.188 81.875C363.479 82.5 363.625 83.125 363.625 83.75C363.625 83.8333 363.625 83.9375 363.625 84.0625C363.625 84.1875 363.583 84.375 363.5 84.625C362.958 86.75 362.208 88.9792 361.25 91.3125C360.333 93.6458 359.125 95.7917 357.625 97.75C356.167 99.7083 354.417 101.333 352.375 102.625C350.333 103.917 347.938 104.562 345.188 104.562C343.479 104.562 341.958 104.229 340.625 103.562C339.333 102.938 338.208 102.083 337.25 101C336.333 99.9167 335.625 98.6458 335.125 97.1875C334.667 95.7292 334.438 94.1875 334.438 92.5625V66.5625C334.438 65.5625 334.417 64.625 334.375 63.75C334.333 62.875 334.208 62.1042 334 61.4375C333.833 60.7708 333.562 60.25 333.188 59.875C332.854 59.4583 332.375 59.25 331.75 59.25C330.833 59.25 329.708 59.875 328.375 61.125C327.042 62.375 325.729 64 324.438 66C323.146 68 322 70.2708 321 72.8125C320.042 75.3125 319.438 77.8333 319.188 80.375V99.0625C319.188 99.6875 319.167 100.333 319.125 101C319.125 101.625 319 102.188 318.75 102.688C318.542 103.229 318.188 103.667 317.688 104C317.229 104.375 316.542 104.562 315.625 104.562C315 104.562 314.312 104.479 313.562 104.312C312.854 104.188 312.188 103.917 311.562 103.5C310.979 103.125 310.479 102.562 310.062 101.812C309.688 101.104 309.5 100.146 309.5 98.9375V58.375Z" fill="black"/>
<path fill-rule="evenodd" clip-rule="evenodd" d="M261.5 47C264.538 47 267 49.4624 267 52.5V107.5C267 110.538 264.538 113 261.5 113C258.462 113 256 110.538 256 107.5V52.5C256 49.4624 258.462 47 261.5 47Z" fill="black"/>
<path fill-rule="evenodd" clip-rule="evenodd" d="M274.375 95.7143C274.375 93.9077 275.4 92.2775 276.925 91.3092C287.81 84.3986 296 70.3487 296 52.5C296 26.8175 279.044 9 261.5 9C243.956 9 227 26.8175 227 52.5C227 70.3487 235.19 84.3986 246.075 91.3092C247.6 92.2775 248.625 93.9077 248.625 95.7143C248.625 99.0783 245.262 101.376 242.368 99.6626C227.936 91.1186 218 73.2096 218 52.5C218 23.5051 237.476 0 261.5 0C285.524 0 305 23.5051 305 52.5C305 73.2096 295.064 91.1186 280.632 99.6626C277.738 101.376 274.375 99.0783 274.375 95.7143Z" fill="black"/>
</svg>
